# xmcd
#
# Track frame offsets: 
#        150
#        22393
#        39693
#        54431
#        66552
#        82668
#        93463
#        107642
#        119631
#        138145
#        154887
#        167262
#        181287
#        191324
#        215236
#        229023
#        244125
#        259720
#        274779
#        291450
#        300162
#        311757
#        323336
#
# Disc length: 4515 seconds
#
# Revision: 0
# Processed by: cddbd v1.5.2PL0 Copyright (c) Steve Scherf et al.
# Submitted via: ExactAudioCopy v0.99pb5
#
DISCID=4511a117
DTITLE=Андрей Веренок - А на Малой Пироговке
DYEAR=2005
DGENRE=Folklore
TTITLE0=''Чёртово'' колесо
TTITLE1=Душно, перегарище...
TTITLE2=Жизнь напрасной не бывает...
TTITLE3=Сельская идиллия
TTITLE4=Лялин переулок
TTITLE5=Предкам далёким...
TTITLE6=Прощальные речи
TTITLE7=Покой
TTITLE8=По переулку...
TTITLE9=Гуляет Молодость моя...
TTITLE10=Всю ночь моя гитара звенит...
TTITLE11=Беговая - Усачёвка
TTITLE12=Осень
TTITLE13=В 19-ом бы веке
TTITLE14=Весь юмор мой...
TTITLE15=Подражание Г.Шпаликову
TTITLE16=Обои успели уже отслоиться...
TTITLE17=Суеты не избежать...
TTITLE18=Магазины, кафетерии...
TTITLE19=На помойку выброшу...
TTITLE20=Хоть к вершине путь далёк...
TTITLE21=После вечеринки
TTITLE22=А на Малой Пироговке...
EXTD=
EXTT0=
EXTT1=
EXTT2=
EXTT3=
EXTT4=
EXTT5=
EXTT6=
EXTT7=
EXTT8=
EXTT9=
EXTT10=
EXTT11=
EXTT12=
EXTT13=
EXTT14=
EXTT15=
EXTT16=
EXTT17=
EXTT18=
EXTT19=
EXTT20=
EXTT21=
EXTT22=
PLAYORDER=
